HIERARCHY
ROOT Hips
{
	OFFSET 0.00000 0.00000 0.00000
	CHANNELS 6 Xposition Yposition Zposition Zrotation Yrotation Xrotation 
	JOINT LHipJoint
	{
		OFFSET 0 0 0
		CHANNELS 3 Zrotation Yrotation Xrotation
		JOINT LeftUpLeg
		{
			OFFSET 1.75344 -1.53157 0.77399
			CHANNELS 3 Zrotation Yrotation Xrotation
			JOINT LeftLeg
			{
				OFFSET 2.25415 -6.19323 0.00000
				CHANNELS 3 Zrotation Yrotation Xrotation
				JOINT LeftFoot
				{
					OFFSET 2.30342 -6.32861 0.00000
					CHANNELS 3 Zrotation Yrotation Xrotation
					JOINT LeftToeBase
					{
						OFFSET 0.10958 -0.30108 1.49206
						CHANNELS 3 Zrotation Yrotation Xrotation
						End Site
						{
							OFFSET 0.00000 -0.00000 0.77783
						}
					}
				}
			}
		}
	}
	JOINT RHipJoint
	{
		OFFSET 0 0 0
		CHANNELS 3 Zrotation Yrotation Xrotation
		JOINT RightUpLeg
		{
			OFFSET -1.81912 -1.53156 0.77399
			CHANNELS 3 Zrotation Yrotation Xrotation
			JOINT RightLeg
			{
				OFFSET -2.22882 -6.12365 0.00000
				CHANNELS 3 Zrotation Yrotation Xrotation
				JOINT RightFoot
				{
					OFFSET -2.21943 -6.09785 0.00000
					CHANNELS 3 Zrotation Yrotation Xrotation
					JOINT RightToeBase
					{
						OFFSET -0.18931 -0.52012 1.59379
						CHANNELS 3 Zrotation Yrotation Xrotation
						End Site
						{
							OFFSET -0.00000 -0.00000 0.84686
						}
					}
				}
			}
		}
	}
	JOINT LowerBack
	{
		OFFSET 0 0 0
		CHANNELS 3 Zrotation Yrotation Xrotation
		JOINT Spine
		{
			OFFSET -0.00200 1.66634 -0.14248
			CHANNELS 3 Zrotation Yrotation Xrotation
			JOINT Spine1
			{
				OFFSET -0.00875 1.64542 0.09514
				CHANNELS 3 Zrotation Yrotation Xrotation
				JOINT Neck
				{
					OFFSET 0 0 0
					CHANNELS 3 Zrotation Yrotation Xrotation
					JOINT Neck1
					{
						OFFSET 0.02257 1.59605 0.00839
						CHANNELS 3 Zrotation Yrotation Xrotation
						JOINT Head
						{
							OFFSET -0.10214 1.57530 -0.23335
							CHANNELS 3 Zrotation Yrotation Xrotation
							End Site
							{
								OFFSET -0.03588 1.60717 -0.08062
							}
						}
					}
				}
				JOINT LeftShoulder
				{
					OFFSET 0 0 0
					CHANNELS 3 Zrotation Yrotation Xrotation
					JOINT LeftArm
					{
						OFFSET 2.54983 1.10186 0.40078
						CHANNELS 3 Zrotation Yrotation Xrotation
						JOINT LeftForeArm
						{
							OFFSET 4.28840 -0.00000 0.00000
							CHANNELS 3 Zrotation Yrotation Xrotation
							JOINT LeftHand
							{
								OFFSET 3.06552 -0.00000 -0.00000
								CHANNELS 3 Zrotation Yrotation Xrotation
								JOINT LeftFingerBase
								{
									OFFSET 0 0 0
									CHANNELS 3 Zrotation Yrotation Xrotation
									JOINT LeftHandIndex1
									{
										OFFSET 0.75304 -0.00000 0.00000
										CHANNELS 3 Zrotation Yrotation Xrotation
										End Site
										{
											OFFSET 0.60712 -0.00000 0.00000
										}
									}
								}
								JOINT LThumb
								{
									OFFSET 0 0 0
									CHANNELS 3 Zrotation Yrotation Xrotation
									End Site
									{
										OFFSET 0.61639 -0.00000 0.61639
									}
								}
							}
						}
					}
				}
				JOINT RightShoulder
				{
					OFFSET 0 0 0
					CHANNELS 3 Zrotation Yrotation Xrotation
					JOINT RightArm
					{
						OFFSET -2.60909 1.35448 0.21802
						CHANNELS 3 Zrotation Yrotation Xrotation
						JOINT RightForeArm
						{
							OFFSET -4.52172 -0.00000 -0.00000
							CHANNELS 3 Zrotation Yrotation Xrotation
							JOINT RightHand
							{
								OFFSET -2.89140 -0.00000 0.00000
								CHANNELS 3 Zrotation Yrotation Xrotation
								JOINT RightFingerBase
								{
									OFFSET 0 0 0
									CHANNELS 3 Zrotation Yrotation Xrotation
									JOINT RightHandIndex1
									{
										OFFSET -0.68054 -0.00000 0.00000
										CHANNELS 3 Zrotation Yrotation Xrotation
										End Site
										{
											OFFSET -0.54867 -0.00000 0.00000
										}
									}
								}
								JOINT RThumb
								{
									OFFSET 0 0 0
									CHANNELS 3 Zrotation Yrotation Xrotation
									End Site
									{
										OFFSET -0.55705 -0.00000 0.55705
									}
								}
							}
						}
					}
				}
			}
		}
	}
}
MOTION
Frames: 10
Frame Time: .0083333
9.8132 14.0121 3.9941 -158.5820 -59.5577 -194.3150 0.0000 0.0000 0.0000 -25.3231 -6.5061 -31.4986 9.9870 17.4025 59.4450 4.0254 -4.7690 -37.0485 0.6233 5.0523 14.0578 0.0000 0.0000 0.0000 19.8843 22.7213 -21.3537 -7.1516 -15.4582 49.4453 -2.2267 -6.7845 -31.2520 -3.4994 11.4627 -33.8567 7.0084 -3.8478 15.7317 4.9891 -3.3432 -3.4010 2.5126 -1.9339 -12.7952 3.0368 6.7679 -8.7961 -3.5720 7.9740 -11.0117 -1.5142 3.6387 -1.7226 0.0000 0.0000 0.0000 -79.9722 -7.2861 91.4011 48.9347 -52.5567 -25.3259 -0.0000 0.0000 -7.7334 6.1012 -49.7651 -4.6650 -7.1250 0.0000 -0.0000 -16.0687 -18.3161 20.9758 0.0000 0.0000 0.0000 81.4890 -34.5717 -18.3799 -14.4027 23.3074 -2.9856 0.0000 0.0000 36.1346 12.9063 -52.7142 -10.3323 7.1250 -0.0000 -0.0000 79.2046 -66.9080 -53.6127
9.8632 13.8761 3.8676 -157.9280 -60.5299 -194.4980 0.0000 0.0000 0.0000 -24.5411 -8.6690 -33.6681 11.3446 18.0996 63.8955 3.9783 -4.1352 -36.9326 0.6426 5.1284 14.2753 0.0000 0.0000 0.0000 20.0281 22.5074 -23.7060 -8.0726 -16.1724 52.8238 -2.4822 -6.8130 -32.7731 -3.2940 11.1564 -32.8092 6.6719 -3.9480 16.0643 4.8910 -3.5055 -3.4463 2.6651 -1.9819 -13.0317 3.2298 7.3793 -8.9078 -3.6851 8.6979 -11.8579 -1.5869 3.9643 -1.9457 0.0000 -0.0000 0.0000 -79.9510 -5.4094 88.0606 46.4693 -51.4683 -23.3826 -0.0000 0.0000 -7.8551 6.0091 -48.9853 -4.5413 -7.1250 0.0000 -0.0000 -15.9968 -17.5632 20.7457 0.0000 -0.0000 0.0000 84.8010 -34.4949 -21.3335 -13.8675 22.5449 -2.7771 0.0000 0.0000 38.6459 13.1000 -52.7423 -10.4932 7.1250 -0.0000 -0.0000 79.3810 -66.8535 -53.7115
9.9252 13.6420 3.7369 -156.4360 -61.1608 -195.4250 0.0000 0.0000 0.0000 -23.1539 -10.6963 -36.2576 12.8816 18.7390 68.7573 3.9641 -4.0377 -36.8818 0.5397 4.7070 13.0748 0.0000 0.0000 0.0000 20.6330 23.1641 -26.5261 -9.2989 -16.9963 57.1183 -2.5333 -7.2804 -33.3166 -2.7593 10.2948 -29.9367 6.8917 -4.0699 16.3521 4.9725 -3.5960 -3.3147 2.6748 -2.0360 -13.0634 3.5764 8.0666 -9.0741 -4.2193 9.4438 -13.0366 -1.8284 4.2842 -2.2431 0.0000 0.0000 0.0000 -80.2666 -3.9282 84.3098 44.1306 -50.3354 -21.5674 -0.0000 0.0000 -7.3716 5.7996 -49.5104 -4.4171 -7.1250 0.0000 -0.0000 -16.1624 -18.0331 21.0574 0.0000 0.0000 0.0000 87.3105 -33.8504 -23.0511 -13.3461 21.7922 -2.5803 0.0000 0.0000 41.1489 13.8291 -52.6106 -11.0663 7.1250 -0.0000 -0.0000 79.5220 -66.5794 -53.4778
9.9860 13.4194 3.6209 -154.9170 -61.7269 -196.6180 0.0000 0.0000 0.0000 -21.7815 -12.4993 -38.4571 14.3363 19.2129 73.2289 3.9401 -3.6062 -36.8480 0.3100 3.5794 9.8962 0.0000 0.0000 0.0000 21.4570 24.2127 -28.6840 -10.5038 -17.6836 61.1593 -2.4463 -9.0126 -33.8191 -2.5338 9.8991 -28.6506 7.2380 -4.1637 16.9204 4.9910 -3.5988 -3.1090 2.5381 -2.0588 -13.1875 4.3976 8.7212 -8.8423 -5.2514 10.0689 -14.5700 -2.3494 4.5268 -2.6830 -0.0000 0.0000 0.0000 -80.5357 -2.6385 80.7144 42.0125 -49.2181 -19.9500 -0.0000 0.0000 -6.4953 5.2806 -49.3689 -4.0123 -7.1250 0.0000 -0.0000 -16.3676 -17.8291 21.3076 -0.0000 0.0000 0.0000 89.4816 -33.1577 -23.4927 -13.0389 21.3442 -2.4674 0.0000 0.0000 43.5206 15.5726 -52.0876 -12.4004 7.1250 -0.0000 -0.0000 79.4632 -65.8644 -52.4370
10.0342 13.2904 3.5286 -153.7840 -62.2321 -197.7230 0.0000 0.0000 0.0000 -20.6791 -13.9221 -39.7952 15.4679 19.5002 76.6420 3.9189 -3.5021 -36.7650 0.1965 2.8549 7.8749 0.0000 0.0000 0.0000 22.1668 23.7322 -30.3433 -11.4630 -18.1543 64.2762 -2.7448 -8.3901 -35.0952 -2.0924 9.0560 -25.9707 7.3591 -4.2187 17.7807 4.9900 -3.5659 -2.8555 2.5144 -2.0463 -13.4108 4.9069 9.1909 -8.6215 -5.9070 10.4908 -16.0401 -2.7126 4.6728 -3.1490 0.0000 -0.0000 0.0000 -80.9219 -1.5007 77.0332 39.8003 -47.9511 -18.2908 -0.0000 0.0000 -5.0363 5.7145 -49.1304 -4.3274 -7.1250 0.0000 -0.0000 -16.1458 -17.6608 20.9694 0.0000 -0.0000 0.0000 91.2620 -32.4961 -22.8678 -13.0100 21.3018 -2.4569 0.0000 0.0000 45.9523 18.0572 -51.3397 -14.2830 7.1250 -0.0000 -0.0000 79.5059 -64.8471 -51.0460
10.0688 13.2117 3.4381 -153.3100 -62.4040 -198.3380 0.0000 0.0000 0.0000 -19.8866 -14.6161 -40.5949 16.2636 19.6619 79.0161 3.8773 -2.9725 -36.6706 0.0441 1.3555 3.7275 0.0000 0.0000 0.0000 22.8495 23.4594 -31.1287 -12.1320 -18.4459 66.4066 -3.0869 -7.5965 -36.4657 -1.6862 8.1793 -23.2602 7.1238 -4.1468 18.5549 4.9709 -3.4608 -2.5282 2.6288 -1.9739 -13.4666 5.0428 9.4834 -8.5682 -6.0821 10.7494 -17.1924 -2.8438 4.7487 -3.5376 0.0000 -0.0000 0.0000 -81.3249 -0.5645 73.2514 37.5114 -46.5244 -16.6101 -0.0000 0.0000 -3.4182 6.9240 -49.0128 -5.2376 -7.1250 0.0000 -0.0000 -15.6002 -17.7175 20.2244 0.0000 -0.0000 0.0000 92.3612 -31.6972 -21.1566 -12.9609 21.2299 -2.4391 0.0000 0.0000 48.4302 20.1999 -50.3384 -15.8142 7.1250 -0.0000 -0.0000 78.9889 -63.8548 -49.1017
10.0952 13.1770 3.3534 -153.5180 -62.4683 -198.2620 0.0000 0.0000 0.0000 -19.4878 -14.8247 -41.0848 16.7600 19.7464 80.4882 3.7994 -2.1181 -36.4777 0.0084 -0.5902 -1.6217 0.0000 0.0000 0.0000 23.2694 23.5878 -31.4839 -12.5651 -18.6195 67.7692 -3.1754 -8.0453 -37.1491 -1.6123 8.0069 -22.7352 6.5304 -3.9204 19.1610 4.9452 -3.2498 -2.2665 2.8911 -1.8274 -13.4735 5.0294 9.6029 -8.4557 -6.1478 10.8313 -18.0443 -2.9101 4.7566 -3.8594 0.0000 0.0000 0.0000 -81.8577 0.1450 69.7244 35.2055 -44.9583 -14.9584 -0.0000 0.0000 -1.9237 7.3925 -49.0315 -5.5952 -7.1250 0.0000 -0.0000 -15.3978 -17.8030 19.9599 0.0000 0.0000 0.0000 92.7166 -30.8617 -17.8768 -13.1972 21.5755 -2.5254 0.0000 0.0000 46.6451 22.4947 -50.2207 -17.6534 7.1250 -0.0000 -0.0000 80.2778 -63.1177 -49.2694
10.1263 13.1485 3.2808 -154.0490 -62.6096 -197.6910 0.0000 0.0000 0.0000 -19.2988 -14.9618 -41.7061 17.1238 19.8005 81.5635 3.7543 -1.8858 -36.3087 0.0418 -1.3199 -3.6294 0.0000 0.0000 0.0000 23.3022 23.8086 -32.0161 -12.8911 -18.7425 68.7870 -3.1548 -8.7641 -37.4273 -1.6518 8.0996 -23.0169 5.8383 -3.5937 19.6888 4.9032 -2.9294 -2.1798 3.1636 -1.6238 -13.6390 5.0079 9.5289 -8.4521 -6.1924 10.6878 -18.4718 -2.9458 4.6701 -4.0247 -0.0000 -0.0000 0.0000 -82.6336 0.5410 66.4371 32.7272 -43.1193 -13.2353 -0.0000 0.0000 -0.3178 7.0328 -48.6716 -5.2928 -7.1250 0.0000 -0.0000 -15.5023 -17.4088 20.0368 -0.0000 -0.0000 0.0000 92.6870 -29.9161 -14.8900 -13.2071 21.5899 -2.5290 0.0000 0.0000 44.6503 21.3860 -50.3444 -16.7781 7.1250 -0.0000 -0.0000 79.7754 -63.4950 -49.3387
10.1598 13.1091 3.2033 -154.5160 -62.5565 -197.0380 0.0000 0.0000 0.0000 -18.9639 -14.7168 -42.5318 17.4515 19.8436 82.5299 3.7883 -2.3423 -36.3703 0.0315 -1.1460 -3.1505 0.0000 0.0000 0.0000 23.3730 24.0892 -32.7018 -13.1749 -18.8444 69.6678 -3.1604 -9.0092 -37.5880 -1.6399 8.0719 -22.9327 5.2155 -3.1579 20.1404 4.7804 -2.4566 -2.2297 3.2595 -1.3569 -13.9371 5.4157 9.3261 -8.0237 -6.6215 10.3348 -19.2784 -2.9338 4.5060 -3.8496 0.0000 -0.0000 0.0000 -83.1869 0.7565 63.4077 30.1575 -41.0280 -11.5128 -0.0000 -0.0000 1.3821 6.2114 -48.0727 -4.6293 -7.1250 0.0000 -0.0000 -15.7813 -16.7234 20.3001 0.0000 -0.0000 0.0000 92.6614 -28.8279 -12.5899 -13.1285 21.4753 -2.5001 0.0000 0.0000 42.2915 19.0788 -50.2728 -14.8960 7.1250 -0.0000 -0.0000 78.1311 -64.1759 -48.7415
10.1926 13.0619 3.1193 -154.6120 -62.3038 -196.6290 0.0000 0.0000 0.0000 -18.3505 -14.1111 -43.5238 17.7601 19.8793 83.4384 3.8847 -3.1645 -36.6664 0.0032 -0.3653 -1.0038 0.0000 0.0000 0.0000 23.6618 24.8419 -33.3139 -13.4432 -18.9364 70.4964 -3.2685 -8.5594 -37.8842 -1.3965 7.4761 -21.1337 4.7817 -2.7867 20.5377 4.8685 -2.0192 -2.2995 3.4973 -1.1154 -14.2363 5.0218 9.1856 -8.1632 -6.5443 10.1555 -19.3212 -2.8473 4.4369 -3.8763 0.0000 -0.0000 0.0000 -83.7446 0.9539 60.2760 27.8995 -39.0236 -10.0604 -0.0000 -0.0000 3.0778 5.5597 -47.3785 -4.0970 -7.1250 0.0000 -0.0000 -15.9813 -15.9744 20.4377 0.0000 -0.0000 0.0000 92.1127 -27.7511 -10.3768 -13.5294 22.0580 -2.6488 0.0000 0.0000 39.7903 17.4500 -50.7580 -13.6825 7.1250 -0.0000 -0.0000 77.9879 -64.8454 -49.5691
